<svg width="78" height="78" viewBox="0 0 78 78" fill="none" xmlns="http://www.w3.org/2000/svg">
<g id="ic:round-child-care">
<path id="Vector" d="M46.6711 37.8194C48.887 37.8118 50.6773 36.0093 50.6698 33.7934C50.6622 31.5775 48.8597 29.7872 46.6438 29.7947C44.4279 29.8022 42.6376 31.6047 42.6451 33.8207C42.6527 36.0366 44.4551 37.8269 46.6711 37.8194Z" fill="white"/>
<path id="Vector_2" d="M30.6218 37.8738C32.8377 37.8663 34.628 36.0638 34.6205 33.8478C34.613 31.6319 32.8105 29.8416 30.5945 29.8492C28.3786 29.8567 26.5883 31.6592 26.5958 33.8751C26.6034 36.0911 28.4059 37.8813 30.6218 37.8738Z" fill="white"/>
<path id="Vector_3" d="M51.8314 45.0241L25.5106 45.1135C24.9007 45.1156 24.4856 45.759 24.7763 46.3037C27.4576 51.3341 32.7013 54.7188 38.7037 54.6984C44.7061 54.678 49.9266 51.2577 52.5737 46.2092C52.6303 46.0831 52.655 45.9449 52.6455 45.8069C52.636 45.669 52.5926 45.5355 52.5192 45.4183C52.4458 45.3011 52.3447 45.2038 52.2247 45.135C52.1047 45.0663 51.9696 45.0282 51.8314 45.0241ZM73.7578 36.4112C73.3467 34.0434 72.2807 31.838 70.6804 30.045C69.0801 28.252 67.0096 26.9431 64.7035 26.2667C63.0005 22.7176 60.5988 19.5488 57.6422 16.9499C52.5552 12.4412 45.8695 9.73552 38.551 9.76039C31.2325 9.78525 24.5653 12.5363 19.5091 17.0795C16.5649 19.6895 14.1683 22.8754 12.5113 26.444C10.2072 27.1314 8.14297 28.4529 6.55417 30.2576C4.96537 32.0623 3.91609 34.2774 3.52615 36.6499C3.40004 37.3244 3.33825 38.0308 3.34075 38.7691C3.34326 39.5073 3.40986 40.2133 3.54054 40.8869C3.95159 43.2548 5.01765 45.4602 6.61793 47.2531C8.21821 49.0461 10.2887 50.355 12.5948 51.0315C14.2757 54.5582 16.6563 57.7063 19.5917 60.2843C24.6788 64.8251 31.3968 67.5628 38.7473 67.5378C46.0979 67.5128 52.7971 64.7295 57.8853 60.1542C60.7654 57.5765 63.162 54.3906 64.8192 50.854C67.1165 50.1602 69.1732 48.836 70.7558 47.032C72.3383 45.228 73.3834 43.0164 73.7722 40.6483C73.8983 39.9737 73.9601 39.2674 73.9576 38.5291C73.9551 37.7908 73.8885 37.0849 73.7578 36.4112ZM61.14 44.9924C60.819 44.9935 60.5299 44.9303 60.2088 44.8993C59.5741 47.0521 58.65 49.0454 57.4686 50.879C53.4771 57.0235 46.5897 61.0913 38.7255 61.1181C30.8614 61.1448 23.9464 57.1238 19.9133 51.0066C18.7194 49.1811 17.7818 47.1941 17.1325 45.0457C16.8116 45.0789 16.523 45.1441 16.202 45.1451C12.6712 45.1571 9.77246 42.2781 9.76047 38.7473C9.74847 35.2164 12.6275 32.3177 16.1584 32.3057C16.4793 32.3046 16.7685 32.3679 17.0895 32.3989C17.7242 30.2461 18.6483 28.2528 19.8297 26.4191C23.8212 20.2747 30.7087 16.2068 38.5728 16.1801C46.437 16.1534 53.3519 20.1743 57.385 26.2915C58.5789 28.1171 59.5165 30.1041 60.1658 32.2525C60.4867 32.2193 60.7753 32.1541 61.0963 32.153C64.6272 32.141 67.5259 35.0201 67.5379 38.5509C67.5499 42.0818 64.6708 44.9804 61.14 44.9924Z" fill="white"/>
</g>
</svg>
