<svg width="57" height="81" viewBox="0 0 57 81" fill="none" xmlns="http://www.w3.org/2000/svg">
<path id="Vector" d="M27.9998 0.0950357C12.5199 0.14764 0.042515 12.7101 0.0951193 28.19C0.118771 35.15 2.14091 41.6631 5.80088 47.5307C9.62179 53.6778 14.6397 58.9408 18.5006 65.0877C20.3908 68.0813 21.7603 70.8766 23.2113 74.1117C24.2588 76.3082 25.1117 80.1053 28.2717 80.0946C31.4316 80.0838 32.2587 76.281 33.2512 74.0776C34.7202 70.8326 36.0307 68.0281 37.9005 65.0218C41.7197 58.8888 46.7017 53.5918 50.4806 47.3789C54.1406 41.4864 56.1184 34.9597 56.0948 27.9997C56.0422 12.5198 43.4797 0.0424315 27.9998 0.0950357ZM28.1323 39.0948C22.6124 39.1136 18.1172 34.6488 18.0984 29.1289C18.0797 23.6089 22.5444 19.1137 28.0644 19.0949C33.5843 19.0762 38.0795 23.5409 38.0983 29.0609C38.1171 34.5809 33.6523 39.0761 28.1323 39.0948Z" fill="#FE0606"/>
</svg>
